<?xml version="1.0" encoding="utf-8"?>
<!-- Generator: Adobe Illustrator 15.0.2, SVG Export Plug-In . SVG Version: 6.00 Build 0)  -->
<!DOCTYPE svg PUBLIC "-//W3C//DTD SVG 1.1//EN" "http://www.w3.org/Graphics/SVG/1.1/DTD/svg11.dtd">
<svg version="1.1" id="Layer_1" xmlns="http://www.w3.org/2000/svg" xmlns:xlink="http://www.w3.org/1999/xlink" x="0px" y="0px"
	 width="1534px" height="232px" viewBox="0 0 1534 232" enable-background="new 0 0 1534 232" xml:space="preserve">
<path d="M607.778,25.132l8.193,50.012l7.8,54.545l1.171,30.551l-6.239,48.765l6.552,0.937l9.045-49.619l-1.4-29.383l52.575,2.813
	l6.706,35.161l-1.165,50.404l7.251,0.785l1.717-51.032l-0.467-42.197l-0.935-1.09l-14.976-2.184l-51.021-2.975l-10.764-46.418
	l-7.956-50.014L607.778,25.132z M636.691,68.398l0.468,42.197l0.934,1.095l14.98,2.187l51.017,2.968l10.761,46.417l7.96,50.012
	l6.082-0.938l-8.189-50.008l-7.799-54.546l-1.169-30.552l6.235-48.764l-6.55-0.94l-9.048,49.618l1.405,29.387l-52.579-2.81
	l-6.705-35.166l1.171-50.402l-7.257-0.787L636.691,68.398z"/>
<g>
	<defs>
		<rect id="SVGID_1_" x="-58" y="-239.555" width="1644.028" height="745.555"/>
	</defs>
	<clipPath id="SVGID_2_">
		<use xlink:href="#SVGID_1_"  overflow="visible"/>
	</clipPath>
	<path clip-path="url(#SVGID_2_)" d="M1431.533,218.024h26.614V16.667h32.188l23.54,9.71l8.007,29.128v-1.157l-7.96-29.129
		l-23.497-9.709h-91.657l-25.128,10.494l-3.899,28.344v1.157l4.17-28.45l24.888-10.388h32.734V218.024z M1197.659,218.024h139.443
		v-1.158h-112.539V113.294h80.716v-1.157h-80.716v-95.47h108.779V15.51h-135.684V218.024z M1061.186,114.163
		c32.401,0,57.283,14.754,57.283,50.919c0,38.478-20.542,51.784-53.521,51.784h-44.553V114.163H1061.186z M1020.395,16.667h37.897
		c35.007,0,51.785,15.912,51.785,48.894c0,37.608-21.986,47.444-48.313,47.444h-41.37V16.667z M1071.89,113.584
		c32.402-0.868,65.092-17.648,65.092-48.023c0-36.165-32.979-50.051-72.613-50.051h-70.879v202.514h77.821
		c42.239,0,74.353-16.491,74.353-53.521C1145.663,129.785,1107.186,114.741,1071.89,113.584 M923.384,218.024h28.353L856.554,12.616
		h-1.158l-91.129,205.408h1.446l32.113-72.327h92.287L923.384,218.024z M889.535,144.54h-91.13l44.84-101.257L889.535,144.54z
		 M445.331,126.024V16.667h41.081c36.451,0,57.571,19.674,57.571,55.546c0,35.875-21.12,53.811-57.571,53.811H445.331z
		 M493.067,127.181c42.528,0,79.269-13.018,79.269-54.968c0-41.659-37.03-56.703-79.269-56.703h-74.641v202.514h26.905v-90.843
		H493.067z M253.019,218.024h111.224v-1.158h-84.318V15.51h-26.906V218.024z M171.264,218.024h28.351L104.433,12.616h-1.158
		l-91.13,205.408h1.448l32.113-72.327h92.287L171.264,218.024z M137.414,144.54h-91.13L91.125,43.283L137.414,144.54z"/>
</g>
</svg>
